<?xml version="1.0" encoding="utf-8"?>
<svg viewBox="0 0 500 500" xmlns="http://www.w3.org/2000/svg" xmlns:bx="https://boxy-svg.com">
  <defs>
    <linearGradient id="BG1" x1="100%" x2="50%" y1="9.946%" y2="50%">
      <stop offset="0" stop-color="#007B55"/>
      <stop offset="1" stop-color="#00AB55"/>
    </linearGradient>
    <linearGradient id="BG2" x1="50%" x2="50%" y1="0%" y2="100%">
      <stop offset="0" stop-color="#5BE584"/>
      <stop offset="1" stop-color="#00AB55"/>
    </linearGradient>
    <linearGradient id="BG3" x1="50%" x2="50%" y1="0%" y2="100%">
      <stop offset="0" stop-color="#5BE584"/>
      <stop offset="1" stop-color="#00AB55"/>
    </linearGradient>
  </defs>
  <g fill="#00AB55" fill-rule="evenodd" stroke="none" stroke-width="1" transform="matrix(1, 0, 0, 1, -6.129362, 35.198444)" bx:origin="0.589 0.205">
    <path fill="url(#BG1)" d="M183.168 285.573l-2.918 5.298-2.973 5.363-2.846 5.095-2.274 4.043-2.186 3.857-2.506 4.383-1.6 2.774-2.294 3.939-1.099 1.869-1.416 2.388-1.025 1.713-1.317 2.18-.95 1.558-1.514 2.447-.866 1.38-.833 1.312-.802 1.246-.77 1.18-.739 1.111-.935 1.38-.664.956-.425.6-.41.572-.59.8-.376.497-.537.69-.171.214c-10.76 13.37-22.496 23.493-36.93 29.334-30.346 14.262-68.07 14.929-97.202-2.704l72.347-124.682 2.8-1.72c49.257-29.326 73.08 1.117 94.02 40.927z"/>
    <path fill="url(#BG2)" d="M 444.31 229.726 C 398.04 148.77 309.605 -19.09 213.967 60.851 C 185.974 84.249 91.438 243.561 86 246.58 C 192.038 179.453 183.11 382.247 270 383.858 L 270 384 C 356.891 382.389 347.962 179.595 454 246.72 C 451.14 241.658 447.794 235.832 444.31 229.726"/>
    <path fill="url(#BG3)" d="M450 384c26.509 0 48-21.491 48-48s-21.491-48-48-48-48 21.491-48 48 21.491 48 48 48"/>
  </g>
</svg>
